<svg id="Layer_1" data-name="Layer 1" xmlns="http://www.w3.org/2000/svg" viewBox="0 0 246.52 44.39"><defs><style>.cls-1{fill:#5b7c33;}</style></defs><title>hypeaware1</title><path class="cls-1" d="M6,0V13.42a9,9,0,0,1,3.55-2.86,9.84,9.84,0,0,1,4-.77C17,9.8,19.43,11,21,13s2.38,5,2.38,8.54V34.3h-6V21.61a6.69,6.69,0,0,0-1.55-4.79A5.26,5.26,0,0,0,12,15.33a5.64,5.64,0,0,0-4.31,1.95A7.05,7.05,0,0,0,6,22V34.3H0V0H6ZM51.79,10.14,44.42,27.27,37,44.39H30.48l2.25-5.24L35,33.91,30.16,22,25.33,10.14h7l1.84,5.22L36,20.58,37.12,24l1.15,3.41,1.25-3.33,1.25-3.33L43,15.43l2.2-5.29h6.61Zm3.14,34.25V10.14h5.59l.2,1.67.2,1.67a8.7,8.7,0,0,1,3.59-2.95,10.38,10.38,0,0,1,4.25-.93,12.15,12.15,0,0,1,9,3.66,12.86,12.86,0,0,1,3.41,9,13.11,13.11,0,0,1-3.2,9,11.8,11.8,0,0,1-9,3.67,13.27,13.27,0,0,1-4.33-.72,7.15,7.15,0,0,1-3.71-2.71V44.39h-6ZM75.16,22.24a7,7,0,0,0-1.81-4.84,7.33,7.33,0,0,0-10.09,0,7,7,0,0,0-1.81,4.84,6.9,6.9,0,0,0,1.9,4.84,7.1,7.1,0,0,0,9.91,0A6.9,6.9,0,0,0,75.16,22.24Zm15.48,2.11A5.39,5.39,0,0,0,92.82,28a8.32,8.32,0,0,0,5,1.45,11.73,11.73,0,0,0,3.55-.59,7.29,7.29,0,0,0,2.92-1.66l1.91,1.89L108.14,31a12.36,12.36,0,0,1-4.77,3,17,17,0,0,1-5.62,1c-4.16,0-7.48-1.29-9.76-3.54A12.78,12.78,0,0,1,84.48,22,12.61,12.61,0,0,1,88,13a12.86,12.86,0,0,1,9.36-3.56c4,0,7.32,1.25,9.48,3.74s3.18,6.23,2.72,11.2H90.65Zm13.13-4.95a4.91,4.91,0,0,0-2-3.53,7.25,7.25,0,0,0-4.27-1.18,7.62,7.62,0,0,0-4.26,1.18,6.11,6.11,0,0,0-2.5,3.53h13Zm36-9.22h5.73V34.34h-5.63l-.07-.88-.07-.88-.07-.88-.07-.88a6,6,0,0,1-1.42,1.86,8.62,8.62,0,0,1-2,1.32,11.06,11.06,0,0,1-2.25.8,10.28,10.28,0,0,1-2.17.29,14.38,14.38,0,0,1-5-.79,10.67,10.67,0,0,1-6.54-6.46,15.72,15.72,0,0,1-.94-5.59,14.77,14.77,0,0,1,1-5.5,10.92,10.92,0,0,1,2.67-4,11.27,11.27,0,0,1,4-2.4,14.57,14.57,0,0,1,4.94-.78,10.39,10.39,0,0,1,2.37.27,9.81,9.81,0,0,1,2.17.78,8.32,8.32,0,0,1,1.82,1.23,6.62,6.62,0,0,1,1.33,1.63l0-.83,0-.83,0-.83Zm23.39,0,1.32,4.54,1.32,4.54,1.32,4.54,1.32,4.54,1.38-4.54,1.38-4.54,1.38-4.54L174,10.19h6.61l-2.11,6.08-2.11,6.08-2.11,6.08-2.11,6.08h-7l-.62-1.79L164,30.91l-.62-1.79-.62-1.79-.54-2-.54-2-.54-2-.54-2-.54,2-.54,2-.54,2-.54,2-.62,1.79-.62,1.79-.62,1.79-.62,1.79h-7l-2.12-6.08-2.12-6.08-2.12-6.08-2.12-6.08h6.66l1.38,4.54,1.38,4.54,1.38,4.54,1.38,4.54L154,23.82l1.31-4.54,1.31-4.54,1.31-4.54h5.24ZM197.62,10h5.73V34.19h-5.63l-.07-.88-.07-.88-.07-.88-.07-.88A6,6,0,0,1,196,32.53a8.62,8.62,0,0,1-2,1.32,11.06,11.06,0,0,1-2.25.8,10.28,10.28,0,0,1-2.17.29,14.38,14.38,0,0,1-5-.79,10.67,10.67,0,0,1-6.54-6.46,15.72,15.72,0,0,1-.94-5.59,14.77,14.77,0,0,1,1-5.5,10.92,10.92,0,0,1,2.67-4,11.27,11.27,0,0,1,4-2.4,14.57,14.57,0,0,1,4.94-.78,10.39,10.39,0,0,1,2.37.27,9.81,9.81,0,0,1,2.17.78,8.32,8.32,0,0,1,1.82,1.23,6.62,6.62,0,0,1,1.33,1.63l0-.83,0-.83,0-.83Zm12.72,0,.11.7.11.7.11.7.11.7a7.77,7.77,0,0,1,1.51-1.8A6.17,6.17,0,0,1,214,10a7.39,7.39,0,0,1,1.79-.48,12.8,12.8,0,0,1,1.84-.12,10,10,0,0,1,1.84.17,10.06,10.06,0,0,1,1.71.48,8.82,8.82,0,0,1,1.49.73,6.48,6.48,0,0,1,1.18.92l-.67,1.3-.67,1.3-.67,1.3-.67,1.3a8.46,8.46,0,0,0-.91-.68,5.4,5.4,0,0,0-2.07-.79,8.08,8.08,0,0,0-1.33-.1,7.51,7.51,0,0,0-2.26.33,5.36,5.36,0,0,0-1.92,1.06,5,5,0,0,0-1.34,1.9,7.46,7.46,0,0,0-.5,2.84V34.2h-6V10h5.54Zm17.21,13.47a5.39,5.39,0,0,0,2.17,3.69,6.92,6.92,0,0,0,2.19,1.07,10,10,0,0,0,2.85.38,10.76,10.76,0,0,0,1.75-.15,12.16,12.16,0,0,0,1.8-.44,9.51,9.51,0,0,0,1.64-.71,5.49,5.49,0,0,0,1.28-1l1,.94,1,.94,1,.94,1,.94a10.88,10.88,0,0,1-2.18,1.73,14.05,14.05,0,0,1-2.59,1.22,16.65,16.65,0,0,1-2.8.73,16.89,16.89,0,0,1-2.82.24,16.1,16.1,0,0,1-5.59-.92,11.56,11.56,0,0,1-4.17-2.62,11.28,11.28,0,0,1-2.61-4.07,14.88,14.88,0,0,1-.9-5.28,14,14,0,0,1,.9-5.08,11.39,11.39,0,0,1,6.62-6.62,14.6,14.6,0,0,1,5.31-.94,14.93,14.93,0,0,1,5.45.94,10.13,10.13,0,0,1,4,2.81A11.19,11.19,0,0,1,246,17a19.44,19.44,0,0,1,.38,6.53H227.55Zm13.69-5.4a5.44,5.44,0,0,0-.66-2.06,4.67,4.67,0,0,0-1.33-1.47,5.9,5.9,0,0,0-1.9-.88,9,9,0,0,0-2.37-.29,8.71,8.71,0,0,0-2.3.29,5.82,5.82,0,0,0-2,.88,5.89,5.89,0,0,0-1.53,1.47,6.53,6.53,0,0,0-1,2.06h13ZM125.17,22.29a8.31,8.31,0,0,0,.56,3.09,6.56,6.56,0,0,0,3.8,3.76,7.77,7.77,0,0,0,2.79.5,6.71,6.71,0,0,0,5.29-2.29,8.07,8.07,0,0,0,0-10.07A6.71,6.71,0,0,0,132.32,15a7.87,7.87,0,0,0-2.79.49,6.63,6.63,0,0,0-2.27,1.43,6.56,6.56,0,0,0-1.53,2.29A8.25,8.25,0,0,0,125.17,22.29Zm57.54-.15a8.31,8.31,0,0,0,.56,3.09,6.56,6.56,0,0,0,3.8,3.76,7.77,7.77,0,0,0,2.79.5,6.71,6.71,0,0,0,5.29-2.29,8.07,8.07,0,0,0,0-10.07,6.71,6.71,0,0,0-5.29-2.29,7.87,7.87,0,0,0-2.79.49,6.63,6.63,0,0,0-2.27,1.43,6.56,6.56,0,0,0-1.53,2.29A8.25,8.25,0,0,0,182.71,22.15Z"/></svg>